# xmcd
#
# Track frame offsets: 
#        150
#        14641
#        32220
#        43676
#        55240
#        65981
#        81248
#        94415
#        114159
#        128737
#        145451
#        165005
#        180152
#        191966
#        210481
#        225113
#
# Disc length: 3250 seconds
#
# Revision: 0
# Processed by: cddbd v1.5.2PL0 Copyright (c) Steve Scherf et al.
# Submitted via: ExactAudioCopyFreeDBPlugin 1.0
#
DISCID=d70cb010
DTITLE=Blues and the city - CD4
DYEAR=2015
DGENRE=Blues
TTITLE0=Robert Johnson - Sweet Home Chicago
TTITLE1=Ottilie Patterson - St Louis Blues
TTITLE2=Bo Diddley - Bo Diddley
TTITLE3=Jimmy Reed - You Got Me Crying
TTITLE4=Arthur 'Big Boy' Crudup - Look On Yonder Wall
TTITLE5=Peggy Lee - Black Coffee
TTITLE6=Lightnin’ Hopkins - Penitentiary Blues
TTITLE7=Champion Jack Dupree - Evil Woman
TTITLE8=Dinah Washington - Long John Blues
TTITLE9=Eartha Kitt - The Blues
TTITLE10=Big Joe Turner - You're Drive Me Crazy
TTITLE11=John Lee Hooker - Ramblin' By Myself
TTITLE12=Johny Cash - Home Of The Blues
TTITLE13=Pink Anderson - Big House Blues
TTITLE14=Cab Calloway - Minnie The Moocher
TTITLE15=Gary Moore - Still Got the Blues
EXTD=
EXTT0=
EXTT1=
EXTT2=
EXTT3=
EXTT4=
EXTT5=
EXTT6=
EXTT7=
EXTT8=
EXTT9=
EXTT10=
EXTT11=
EXTT12=
EXTT13=
EXTT14=
EXTT15=
PLAYORDER=
